<?xml version="1.0" encoding="iso-8859-1"?>
<!-- Generator: Adobe Illustrator 19.0.0, SVG Export Plug-In . SVG Version: 6.00 Build 0)  -->
<svg version="1.1" id="Capa_1" xmlns="http://www.w3.org/2000/svg" xmlns:xlink="http://www.w3.org/1999/xlink" x="0px" y="0px"
	 viewBox="0 0 512 512" style="enable-background:new 0 0 512 512;" xml:space="preserve">
<path style="fill:#E5E5E5;" d="M389.012,476.69h-8.828V344.276h-17.655V476.69h-8.828c-19.5,0-35.31,15.81-35.31,35.31h105.931
	C424.322,492.5,408.512,476.69,389.012,476.69z"/>
<rect x="362.547" y="344.276" style="fill:#DEDEDE;" width="17.655" height="35.31"/>
<path id="SVGCleanerId_0" style="fill:#E5E5E5;" d="M371.357,361.931L371.357,361.931c-31.126,0-58.262-21.186-65.81-51.385
	l-1.589-6.347c-2.127-8.51-2.586-17.355-1.342-26.041l15.775-110.433h105.931l15.775,110.433c1.245,8.686,0.786,17.532-1.342,26.041
	l-1.589,6.347C429.619,340.745,402.483,361.931,371.357,361.931z"/>
<g>
	<path id="SVGCleanerId_0_1_" style="fill:#E5E5E5;" d="M371.357,361.931L371.357,361.931c-31.126,0-58.262-21.186-65.81-51.385
		l-1.589-6.347c-2.127-8.51-2.586-17.355-1.342-26.041l15.775-110.433h105.931l15.775,110.433
		c1.245,8.686,0.786,17.532-1.342,26.041l-1.589,6.347C429.619,340.745,402.483,361.931,371.357,361.931z"/>
</g>
<path style="fill:#DE4C3C;" d="M302.034,291.31c0.221,4.352,0.865,8.669,1.924,12.888l1.589,6.347
	c9.075,36.343,45.903,58.447,82.247,49.373c24.311-6.073,43.299-25.062,49.373-49.373l1.589-6.347
	c1.059-4.22,1.704-8.536,1.924-12.888H302.034z"/>
<path style="fill:#DEDEDE;" d="M440.097,278.157l-10.884-76.182c-12.977,33.421-32.671,63.823-57.856,89.335h69.297
	C440.901,286.914,440.715,282.509,440.097,278.157z"/>
<path style="fill:#C94536;" d="M316.564,333.78c21.822,30.332,64.106,37.235,94.438,15.413c13.03-9.375,22.298-23.066,26.165-38.647
	l1.589-6.347c0.53-2.119,0.953-4.255,1.271-6.4c0.309-2.039,0.503-4.096,0.627-6.179c0-0.115,0-0.221,0-0.335h-69.297
	C355.026,307.783,336.603,322.066,316.564,333.78z"/>
<path style="fill:#75462E;" d="M177.15,158.897V0h-52.966v158.897c-32.459,16.234-52.966,49.408-52.966,85.698V512h158.897V244.595
	C230.107,208.305,209.609,175.13,177.15,158.897z"/>
<rect x="124.202" y="44.138" style="fill:#DE4C3C;" width="52.966" height="79.448"/>
<path style="fill:#633B27;" d="M71.219,462.786V512h158.897V244.595c-0.062-11.176-2.092-22.254-5.994-32.733
	C183.373,347.807,115.692,424.607,71.219,462.786z"/>
<rect x="106.547" y="273.655" style="fill:#E5E5E5;" width="88.276" height="158.897"/>
<g>
</g>
<g>
</g>
<g>
</g>
<g>
</g>
<g>
</g>
<g>
</g>
<g>
</g>
<g>
</g>
<g>
</g>
<g>
</g>
<g>
</g>
<g>
</g>
<g>
</g>
<g>
</g>
<g>
</g>
</svg>
